<svg width="12" height="22" viewBox="0 0 12 22" fill="none" xmlns="http://www.w3.org/2000/svg">
<path d="M8.87081 11.0078L0.430625 19.5347C0.143544 19.8248 0.00459538 20.1631 0.013782 20.5498C0.0229686 20.9365 0.171486 21.2749 0.459333 21.5649C0.74718 21.855 1.08211 22 1.46412 22C1.84613 22 2.18105 21.855 2.4689 21.5649L11.311 12.6609C11.5407 12.4289 11.7129 12.1679 11.8278 11.8779C11.9426 11.5878 12 11.2978 12 11.0078C12 10.7177 11.9426 10.4277 11.8278 10.1377C11.7129 9.84762 11.5407 9.58659 11.311 9.35457L2.4689 0.421559C2.18182 0.131526 1.84192 -0.00884937 1.44919 0.000431677C1.05646 0.00971273 0.716941 0.159756 0.430625 0.450563C0.144309 0.741369 0.000768624 1.07974 3.07409e-06 1.46568C-0.000762476 1.85161 0.142778 2.18999 0.430625 2.48079L8.87081 11.0078Z" fill="#7EB776"/>
</svg>
