<svg width="13" height="13" viewBox="0 0 13 13" fill="none" xmlns="http://www.w3.org/2000/svg">
<path d="M5.05263 0.999969V2.15786M7.36842 0.999969V2.15786M8.52632 4.47365C8.67986 4.47365 8.82712 4.53465 8.93569 4.64322C9.04427 4.7518 9.10526 4.89905 9.10526 5.0526V9.68418C9.10526 10.2984 8.86128 10.8874 8.42698 11.3217C7.99269 11.756 7.40366 12 6.78947 12H3.31579C2.7016 12 2.11257 11.756 1.67828 11.3217C1.24398 10.8874 1 10.2984 1 9.68418V5.0526C1 4.89905 1.061 4.7518 1.16957 4.64322C1.27814 4.53465 1.4254 4.47365 1.57895 4.47365H9.68421C10.2984 4.47365 10.8874 4.71764 11.3217 5.15193C11.756 5.58623 12 6.17526 12 6.78944C12 7.40363 11.756 7.99266 11.3217 8.42695C10.8874 8.86125 10.2984 9.10523 9.68421 9.10523H9.10526M2.73684 0.999969V2.15786" stroke="#101010" stroke-linecap="round" stroke-linejoin="round"/>
</svg>
