<svg width="28" height="19" viewBox="0 0 28 19" fill="none" xmlns="http://www.w3.org/2000/svg">
<path d="M14 2.53333C16.3402 2.52559 18.6351 3.17526 20.6209 4.40765C22.6066 5.64005 24.2027 7.40514 25.2255 9.5C23.1255 13.7687 18.8364 16.4667 14 16.4667C9.16364 16.4667 4.87455 13.7687 2.77455 9.5C3.79733 7.40514 5.39335 5.64005 7.37912 4.40765C9.36489 3.17526 11.6598 2.52559 14 2.53333ZM14 0C7.63636 0 2.20182 3.93933 0 9.5C2.20182 15.0607 7.63636 19 14 19C20.3636 19 25.7982 15.0607 28 9.5C25.7982 3.93933 20.3636 0 14 0ZM14 6.33333C14.8439 6.33333 15.6532 6.66696 16.2499 7.26083C16.8466 7.85469 17.1818 8.66015 17.1818 9.5C17.1818 10.3399 16.8466 11.1453 16.2499 11.7392C15.6532 12.333 14.8439 12.6667 14 12.6667C13.1561 12.6667 12.3468 12.333 11.7501 11.7392C11.1534 11.1453 10.8182 10.3399 10.8182 9.5C10.8182 8.66015 11.1534 7.85469 11.7501 7.26083C12.3468 6.66696 13.1561 6.33333 14 6.33333ZM14 3.8C10.8436 3.8 8.27273 6.35867 8.27273 9.5C8.27273 12.6413 10.8436 15.2 14 15.2C17.1564 15.2 19.7273 12.6413 19.7273 9.5C19.7273 6.35867 17.1564 3.8 14 3.8Z" fill="#7EB776"/>
</svg>
