<svg width="16" height="20" viewBox="0 0 16 20" fill="none" xmlns="http://www.w3.org/2000/svg">
<path d="M6.5 10.9873V12.5063C6.5 12.7932 6.596 13.0339 6.788 13.2284C6.98 13.4228 7.21733 13.5197 7.5 13.519H8.5C8.78333 13.519 9.021 13.4218 9.213 13.2273C9.405 13.0329 9.50067 12.7926 9.5 12.5063V10.9873H11C11.2833 10.9873 11.521 10.8901 11.713 10.6957C11.905 10.5013 12.0007 10.2609 12 9.97468V8.96203C12 8.67511 11.904 8.43477 11.712 8.24101C11.52 8.04726 11.2827 7.95004 11 7.94937H9.5V6.43038C9.5 6.14346 9.404 5.90312 9.212 5.70937C9.02 5.51561 8.78267 5.4184 8.5 5.41772H7.5C7.21667 5.41772 6.97933 5.51494 6.788 5.70937C6.59667 5.9038 6.50067 6.14414 6.5 6.43038V7.94937H5C4.71667 7.94937 4.47933 8.04658 4.288 8.24101C4.09667 8.43544 4.00067 8.67578 4 8.96203V9.97468C4 10.2616 4.096 10.5023 4.288 10.6967C4.48 10.8911 4.71733 10.988 5 10.9873H6.5ZM8 20C7.88333 20 7.775 19.9916 7.675 19.9747C7.575 19.9578 7.475 19.9325 7.375 19.8987C5.125 19.1392 3.33333 17.734 2 15.683C0.666667 13.6321 0 11.4255 0 9.06329V4.27848C0 3.85654 0.121 3.47679 0.363 3.13924C0.605 2.80169 0.917333 2.55696 1.3 2.40506L7.3 0.126582C7.53333 0.0421941 7.76667 0 8 0C8.23333 0 8.46667 0.0421941 8.7 0.126582L14.7 2.40506C15.0833 2.55696 15.396 2.80169 15.638 3.13924C15.88 3.47679 16.0007 3.85654 16 4.27848V9.06329C16 11.4262 15.3333 13.6331 14 15.6841C12.6667 17.735 10.875 19.1399 8.625 19.8987C8.525 19.9325 8.425 19.9578 8.325 19.9747C8.225 19.9916 8.11667 20 8 20Z" fill="#7EB776"/>
</svg>
