<svg width="20" height="22" viewBox="0 0 20 22" fill="none" xmlns="http://www.w3.org/2000/svg">
<path d="M10 0.25C10.5086 0.25 10.9548 0.400229 11.3477 0.701172L11.3496 0.702148L18.8496 6.35938L18.8516 6.36133C19.1314 6.56769 19.3514 6.82972 19.5117 7.15137C19.6718 7.47273 19.7508 7.8117 19.75 8.1709V19.4854C19.75 20.1103 19.5316 20.6397 19.0879 21.0859C18.6443 21.5321 18.1191 21.7508 17.5 21.75H13.75C13.4594 21.75 13.2272 21.6537 13.0371 21.4619C12.8705 21.2937 12.7764 21.0932 12.7549 20.8496L12.75 20.7422V14.457C12.75 14.0384 12.6063 13.6755 12.3174 13.3857C12.0287 13.0964 11.6674 12.9513 11.251 12.9502H8.75C8.33241 12.9502 7.97086 13.095 7.68262 13.3857C7.3949 13.6761 7.25098 14.0393 7.25 14.457V20.7432C7.24993 21.0365 7.15383 21.2708 6.96289 21.4629C6.77201 21.6549 6.54021 21.7506 6.25098 21.75H2.5C1.87973 21.75 1.35483 21.5312 0.912109 21.0859C0.469336 20.6406 0.250754 20.1115 0.25 19.4854V8.17188L0.253906 8.03809C0.271312 7.72786 0.349958 7.43286 0.490234 7.15137C0.650542 6.82975 0.869588 6.56761 1.14844 6.36133L1.15039 6.35938L8.65039 0.702148L8.65234 0.701172C9.04519 0.40023 9.49136 0.25 10 0.25Z" fill="#7EB776" stroke="#7EB776" stroke-width="0.5"/>
</svg>
