<svg width="11" height="9" viewBox="0 0 11 9" fill="none" xmlns="http://www.w3.org/2000/svg">
<path d="M0 8.99997V7.99997H11V8.99997H0ZM1.5 7.49997C1.225 7.49997 0.989667 7.40214 0.794 7.20647C0.598333 7.0108 0.500333 6.7753 0.5 6.49997V0.999969C0.5 0.724969 0.598 0.489636 0.794 0.29397C0.99 0.0983028 1.22533 0.000302816 1.5 -3.05176e-05H9.5C9.775 -3.05176e-05 10.0105 0.0979695 10.2065 0.29397C10.4025 0.48997 10.5003 0.725303 10.5 0.999969V6.49997C10.5 6.77497 10.4022 7.01047 10.2065 7.20647C10.0108 7.40247 9.77533 7.5003 9.5 7.49997H1.5ZM1.5 6.49997H9.5V0.999969H1.5V6.49997Z" fill="#101010"/>
</svg>
