<svg width="154" height="154" viewBox="0 0 154 154" fill="none" xmlns="http://www.w3.org/2000/svg">
<path d="M79.5268 148.936C70.1857 148.936 61.3908 147.316 53.142 144.074C44.8932 140.833 37.4707 136.379 30.8745 130.713L8.81983 152.511C7.86941 153.504 6.66011 154 5.19192 154C3.72373 154 2.48961 153.504 1.48954 152.511C0.489469 151.518 -0.00701776 150.284 7.49229e-05 148.809C0.00716761 147.333 0.503654 146.128 1.48954 145.191L23.2783 123.394C17.6041 116.805 13.1499 109.34 9.91565 101C6.68138 92.6596 5.0607 83.8156 5.05361 74.4681C5.05361 53.6809 12.2669 36.0745 26.6934 21.6489C41.1341 7.21632 58.7452 0 79.5268 0H142.957C146.077 0 148.698 1.06029 150.819 3.18085C152.94 5.30851 154 7.93262 154 11.0532V74.4681C154 95.2553 146.787 112.865 132.36 127.298C117.92 141.723 100.308 148.936 79.5268 148.936ZM79.5268 138.298C97.2585 138.298 112.33 132.092 124.743 119.681C137.155 107.27 143.361 92.1986 143.361 74.4681V10.6383H79.5268C61.7951 10.6383 46.7231 16.844 34.3109 29.2553C21.8987 41.6667 15.6926 56.7376 15.6926 74.4681C15.6926 82.3404 17.0296 89.7979 19.7036 96.8404C22.3775 103.883 26.1224 110.181 30.9384 115.734L86.6124 60.0638C87.5557 59.0709 88.7615 58.5745 90.2297 58.5745C91.6978 58.5745 92.9533 59.0922 93.9959 60.1277C95.1307 61.2624 95.6981 62.5071 95.6981 63.8617C95.6981 65.2163 95.1094 66.4823 93.9321 67.6596L38.2474 123.117C43.801 127.933 50.0993 131.667 57.1423 134.319C64.1853 136.972 71.6433 138.298 79.5162 138.298" fill="#E9E9E9"/>
</svg>
