<svg width="16" height="20" viewBox="0 0 16 20" fill="none" xmlns="http://www.w3.org/2000/svg">
<path d="M2 20C1.45 20 0.979333 19.8136 0.588 19.4409C0.196666 19.0683 0.000666667 18.6197 0 18.0952V8.57143C0 8.04762 0.196 7.59937 0.588 7.22667C0.98 6.85397 1.45067 6.6673 2 6.66667H3V4.7619C3 3.44444 3.48767 2.32159 4.463 1.39333C5.43833 0.46508 6.61733 0.000635571 8 6.50089e-07C9.38267 -0.00063427 10.562 0.46381 11.538 1.39333C12.514 2.32286 13.0013 3.44571 13 4.7619V6.66667H14C14.55 6.66667 15.021 6.85333 15.413 7.22667C15.805 7.6 16.0007 8.04825 16 8.57143V18.0952C16 18.619 15.8043 19.0676 15.413 19.4409C15.0217 19.8143 14.5507 20.0006 14 20H2ZM5 6.66667H11V4.7619C11 3.96825 10.7083 3.29365 10.125 2.7381C9.54167 2.18254 8.83333 1.90476 8 1.90476C7.16667 1.90476 6.45833 2.18254 5.875 2.7381C5.29167 3.29365 5 3.96825 5 4.7619V6.66667Z" fill="#7EB776"/>
</svg>
