<svg width="143" height="111" viewBox="0 0 143 111" fill="none" xmlns="http://www.w3.org/2000/svg">
<path d="M15.8498 55.3333L3.46894 55.3333C0.356444 55.3333 -1.16522 59.0683 1.04811 61.2125L20.3456 80.5791C21.7289 81.9625 23.8731 81.9625 25.2564 80.5791L44.5539 61.2816C46.6981 59.0683 45.1764 55.3333 42.0639 55.3333L29.6831 55.3333C29.6831 32.4391 48.2889 13.8333 71.1831 13.8333C76.6473 13.8333 81.9731 14.8708 86.7456 16.8766C89.2356 17.9141 92.0714 17.1533 93.9389 15.2858C97.4664 11.7583 96.2214 5.80995 91.5873 3.94245C85.2931 1.38328 78.3764 -4.92023e-05 71.1831 -4.88879e-05C40.6114 -4.75515e-05 15.8498 24.7616 15.8498 55.3333ZM112.683 55.3333C112.683 78.2275 94.0773 96.8333 71.1831 96.8333C65.7189 96.8333 60.3931 95.7958 55.6206 93.79C53.1306 92.7525 50.2948 93.5133 48.4273 95.3808C44.8998 98.9083 46.1448 104.857 50.7789 106.724C57.0731 109.283 63.9898 110.667 71.1831 110.667C101.755 110.667 126.516 85.905 126.516 55.3333L138.897 55.3333C142.01 55.3333 143.531 51.5983 141.318 49.4541L122.021 30.1566C120.637 28.7733 118.493 28.7733 117.11 30.1566L97.8123 49.4541C97.3343 49.9417 97.0114 50.5599 96.8842 51.2307C96.757 51.9015 96.8312 52.595 97.0975 53.2237C97.3638 53.8525 97.8102 54.3883 98.3805 54.7637C98.9508 55.1391 99.6195 55.3373 100.302 55.3333L112.683 55.3333Z" fill="#E9E9E9"/>
</svg>
