<svg width="28" height="28" viewBox="0 0 28 28" fill="none" xmlns="http://www.w3.org/2000/svg">
<path d="M5.18897 14L2.85992 16.329C2.30931 16.8798 2 17.6267 2 18.4055C2 19.1843 2.30931 19.9312 2.85992 20.482L7.51802 25.1401C8.06879 25.6907 8.81569 26 9.59448 26C10.3733 26 11.1202 25.6907 11.6709 25.1401L25.1401 11.6709C25.6907 11.1202 26 10.3733 26 9.59448C26 8.81569 25.6907 8.06879 25.1401 7.51802L20.482 2.85992C19.9312 2.30931 19.1843 2 18.4055 2C17.6267 2 16.8798 2.30931 16.329 2.85992L14 5.18897M5.18897 14L8.12598 16.937M5.18897 14L9.59448 9.59448M14 5.18897L16.937 8.12598M14 5.18897L9.59448 9.59448M9.59448 9.59448L14 14" stroke="#7EB776" stroke-width="2.5" stroke-linecap="round" stroke-linejoin="round"/>
</svg>
