<svg width="20" height="21" viewBox="0 0 20 21" fill="none" xmlns="http://www.w3.org/2000/svg">
<path d="M8.76562 0.25H11.2344C11.6453 0.250029 11.9915 0.384755 12.2861 0.65625C12.5865 0.933147 12.7645 1.26683 12.8252 1.66504V1.66406L13.0615 3.39355L13.0811 3.54004L13.2188 3.59375C13.4329 3.67608 13.6347 3.77417 13.8232 3.88867C14.0187 4.00741 14.2094 4.13474 14.3955 4.27051L14.5098 4.35352L14.6396 4.29883L16.2676 3.61719L16.2715 3.61523C16.6523 3.44774 17.0239 3.43422 17.3994 3.56934C17.7346 3.68995 18.0035 3.8902 18.21 4.17578L18.2949 4.30371L19.5254 6.4502L19.5293 6.45605C19.7408 6.80335 19.7992 7.16592 19.709 7.55664C19.6172 7.95377 19.4139 8.28005 19.0928 8.54199L17.7012 9.5918L17.584 9.68066L17.6045 9.82617C17.6205 9.93793 17.6279 10.0452 17.6279 10.1465V10.8535C17.6279 10.9418 17.6143 11.037 17.585 11.1396L17.5381 11.3047L17.6748 11.4082L19.0664 12.458C19.3876 12.7199 19.5908 13.0462 19.6826 13.4434C19.7728 13.8341 19.7144 14.1966 19.5029 14.5439L19.501 14.5479L18.2422 16.6963C18.0264 17.0507 17.7298 17.2928 17.3467 17.4307C16.9713 17.5657 16.6004 17.5521 16.2197 17.3848H16.2178L14.6426 16.7021L14.5117 16.6455L14.3965 16.7295C14.2109 16.8644 14.0164 16.991 13.8135 17.1094C13.6124 17.2266 13.412 17.3262 13.2129 17.4092L13.0801 17.4639L13.0615 17.6064L12.8252 19.334C12.7639 19.7326 12.586 20.0668 12.2861 20.3438C11.9923 20.6151 11.6462 20.75 11.2344 20.75H8.76562C8.3546 20.75 8.00874 20.6152 7.71484 20.3438C7.41491 20.0667 7.23581 19.7327 7.17383 19.334L6.93848 17.6064L6.91895 17.46L6.78125 17.4062L6.62305 17.3418C6.46749 17.274 6.31948 17.1971 6.17871 17.1113C5.98347 16.9923 5.7915 16.8647 5.60352 16.7285L5.49023 16.6465L5.36035 16.7012L3.73242 17.3828L3.72852 17.3848C3.3477 17.5523 2.9761 17.5658 2.60059 17.4307C2.2654 17.31 1.99654 17.1098 1.79004 16.8242L1.70508 16.6963L0.474609 14.5498L0.470703 14.5439L0.398438 14.4131C0.246694 14.1058 0.212077 13.7853 0.291016 13.4434C0.382782 13.0462 0.586066 12.7199 0.907227 12.458L2.29883 11.4082L2.41602 11.3193L2.39551 11.1738C2.37954 11.0621 2.37207 10.9548 2.37207 10.8535V10.1455C2.37207 10.045 2.37953 9.93801 2.39551 9.82617L2.41602 9.68066L2.29883 9.5918L0.907227 8.54199C0.586066 8.28005 0.382783 7.95377 0.291016 7.55664C0.200814 7.16592 0.259221 6.80335 0.470703 6.45605L0.474609 6.4502L1.70508 4.30371C1.92091 3.94928 2.21739 3.70723 2.60059 3.56934C2.9761 3.43422 3.3477 3.44774 3.72852 3.61523L3.73242 3.61719L5.36035 4.29883L5.49023 4.35352L5.60352 4.27051C5.78913 4.13557 5.98357 4.00897 6.18652 3.89062C6.3876 3.77338 6.58801 3.67376 6.78711 3.59082L6.91992 3.53613L6.93848 3.39355L7.17383 1.66504L7.1748 1.66602C7.23613 1.26759 7.41433 0.933255 7.71484 0.65625C8.00956 0.384661 8.35547 0.250029 8.76562 0.25ZM10.0527 6.5752C8.95488 6.5752 8.01927 6.95944 7.26172 7.72559C6.50575 8.4902 6.12527 9.41964 6.12598 10.5C6.12672 11.5802 6.5075 12.5098 7.2627 13.2744C8.01957 14.0406 8.9549 14.4248 10.0527 14.4248C11.1343 14.4248 12.0645 14.0397 12.8291 13.2754C13.5937 12.511 13.9785 11.5813 13.9785 10.5C13.9785 9.41874 13.5937 8.48898 12.8291 7.72461C12.0645 6.96027 11.1343 6.57525 10.0527 6.5752Z" fill="#7EB776" stroke="#7EB776" stroke-width="0.5"/>
</svg>
