<svg width="24" height="29" viewBox="0 0 24 29" fill="none" xmlns="http://www.w3.org/2000/svg">
<path d="M12 5C9.62663 5 7.30655 5.70379 5.33316 7.02236C3.35977 8.34094 1.8217 10.2151 0.913451 12.4078C0.00519943 14.6005 -0.232441 17.0133 0.230582 19.3411C0.693605 21.6689 1.83649 23.807 3.51472 25.4853C5.19295 27.1635 7.33115 28.3064 9.65892 28.7694C11.9867 29.2324 14.3995 28.9948 16.5922 28.0865C18.7849 27.1783 20.6591 25.6402 21.9776 23.6668C23.2962 21.6935 24 19.3734 24 17C23.9964 13.8185 22.7309 10.7684 20.4813 8.51874C18.2316 6.26909 15.1815 5.00364 12 5ZM12 26C10.22 26 8.47991 25.4722 6.99987 24.4832C5.51983 23.4943 4.36628 22.0887 3.68509 20.4441C3.0039 18.7996 2.82567 16.99 3.17294 15.2442C3.5202 13.4984 4.37737 11.8947 5.63604 10.636C6.89472 9.37737 8.49836 8.5202 10.2442 8.17293C11.99 7.82566 13.7996 8.00389 15.4442 8.68508C17.0887 9.36627 18.4943 10.5198 19.4832 11.9999C20.4722 13.4799 21 15.22 21 17C20.9974 19.3861 20.0483 21.6738 18.361 23.361C16.6738 25.0483 14.3861 25.9974 12 26ZM16.5613 11.9387C16.7011 12.0781 16.812 12.2437 16.8878 12.426C16.9635 12.6083 17.0024 12.8038 17.0024 13.0012C17.0024 13.1987 16.9635 13.3941 16.8878 13.5765C16.812 13.7588 16.7011 13.9244 16.5613 14.0637L13.0613 17.5637C12.7795 17.8455 12.3973 18.0038 11.9988 18.0038C11.6002 18.0038 11.218 17.8455 10.9363 17.5637C10.6545 17.282 10.4962 16.8998 10.4962 16.5012C10.4962 16.1027 10.6545 15.7205 10.9363 15.4387L14.4363 11.9387C14.5756 11.7989 14.7412 11.688 14.9235 11.6122C15.1059 11.5365 15.3013 11.4976 15.4988 11.4976C15.6962 11.4976 15.8917 11.5365 16.074 11.6122C16.2563 11.688 16.4219 11.7989 16.5613 11.9387ZM7.5 1.5C7.5 1.10218 7.65804 0.720644 7.93934 0.43934C8.22065 0.158035 8.60218 0 9 0H15C15.3978 5.92805e-09 15.7794 0.158035 16.0607 0.43934C16.342 0.720644 16.5 1.10218 16.5 1.5C16.5 1.89782 16.342 2.27936 16.0607 2.56066C15.7794 2.84196 15.3978 3 15 3H9C8.60218 3 8.22065 2.84196 7.93934 2.56066C7.65804 2.27936 7.5 1.89782 7.5 1.5Z" fill="#7EB776"/>
</svg>
